<svg width="101" height="110" viewBox="0 0 101 110" fill="none" xmlns="http://www.w3.org/2000/svg">
<rect y="10" width="100" height="100" fill="black"/>
<path d="M33.9356 83.24C32.869 85.7467 31.3756 87.5333 29.4556 88.6C27.5356 89.6133 25.2956 90.12 22.7356 90.12C20.3356 90.12 18.069 89.6667 15.9356 88.76C13.8556 87.8533 12.0156 86.52 10.4156 84.76C8.81563 83 7.53563 80.8667 6.57563 78.36C5.66896 75.8533 5.21563 73 5.21563 69.8V68.52C5.21563 65.3733 5.66896 62.5467 6.57563 60.04C7.48229 57.5333 8.70896 55.4 10.2556 53.64C11.8023 51.88 13.589 50.5467 15.6156 49.64C17.6956 48.68 19.909 48.2 22.2556 48.2C25.0823 48.2 27.349 48.68 29.0556 49.64C30.8156 50.6 32.2023 52.0933 33.2156 54.12H34.6556V49.32H44.7356V77C44.7356 78.6 45.4556 79.4 46.8956 79.4H48.4156V89H41.5356C39.7223 89 38.229 88.4667 37.0556 87.4C35.9356 86.3333 35.3756 84.9467 35.3756 83.24H33.9356ZM24.9756 80.52C27.909 80.52 30.2556 79.56 32.0156 77.64C33.7756 75.6667 34.6556 73 34.6556 69.64V68.68C34.6556 65.32 33.7756 62.68 32.0156 60.76C30.2556 58.7867 27.909 57.8 24.9756 57.8C22.0423 57.8 19.6956 58.7867 17.9356 60.76C16.1756 62.68 15.2956 65.32 15.2956 68.68V69.64C15.2956 73 16.1756 75.6667 17.9356 77.64C19.6956 79.56 22.0423 80.52 24.9756 80.52ZM82.92 23L92.04 25.88L68.12 99L58.92 96.12L82.92 23Z" fill="white"/>
</svg>
