<svg width="75" height="67" viewBox="0 0 75 67" fill="none" xmlns="http://www.w3.org/2000/svg">
<path d="M61.6651 21.628C60.887 21.3602 60.0808 21.1068 59.2507 20.8672C59.3872 20.3104 59.5124 19.7608 59.6237 19.2205C61.4513 10.3491 60.2564 3.20222 56.176 0.849168C52.2634 -1.4071 45.8646 0.945421 39.4022 6.56947C38.7808 7.11027 38.1576 7.68285 37.5347 8.28293C37.1197 7.8859 36.7053 7.50222 36.292 7.13523C29.5192 1.12164 22.7305 -1.41257 18.6541 0.94729C14.7452 3.2101 13.5877 9.92883 15.2328 18.3363C15.3916 19.1484 15.5773 19.9777 15.7873 20.8209C14.8265 21.0936 13.899 21.3844 13.0115 21.6937C5.07109 24.4621 0 28.8008 0 33.3012C0 37.9492 5.44382 42.6113 13.7144 45.4381C14.367 45.6612 15.0443 45.8721 15.7422 46.0724C15.5157 46.9843 15.3186 47.8779 15.1532 48.7495C13.5846 57.0111 14.8096 63.5711 18.708 65.8197C22.7347 68.1417 29.4927 65.7549 36.0733 60.0027C36.5934 59.548 37.1154 59.0658 37.6383 58.5604C38.3161 59.2131 38.9928 59.8308 39.6659 60.4101C46.0399 65.8952 52.3353 68.1101 56.2302 65.8553C60.2529 63.5265 61.5603 56.4795 59.8629 47.9057C59.7333 47.2509 59.5825 46.5819 59.4131 45.9011C59.8876 45.7608 60.3536 45.6159 60.8079 45.4653C69.4059 42.6166 75 38.0113 75 33.3012C75 28.7845 69.7654 24.4165 61.6651 21.628ZM59.8002 42.4241C59.3901 42.5599 58.9693 42.6911 58.5405 42.8183C57.5913 39.8134 56.3103 36.6181 54.7426 33.3168C56.2386 30.0941 57.4701 26.9397 58.3927 23.9542C59.1599 24.1762 59.9046 24.4104 60.6222 24.6575C67.5625 27.0467 71.796 30.5793 71.796 33.3012C71.796 36.2005 67.224 39.9642 59.8002 42.4241ZM56.7199 48.5279C57.4704 52.3192 57.5776 55.7469 57.0804 58.4265C56.6337 60.8343 55.7354 62.4396 54.6247 63.0825C52.2611 64.4506 47.2066 62.6723 41.7554 57.9814C41.1305 57.4437 40.5011 56.8695 39.8696 56.2618C41.9829 53.9505 44.095 51.2636 46.1563 48.2795C49.782 47.9578 53.2075 47.4318 56.3139 46.7137C56.4669 47.3308 56.6028 47.9361 56.7199 48.5279ZM25.5692 62.8461C23.2599 63.6616 21.4207 63.685 20.3089 63.0439C17.9432 61.6795 16.9597 56.4124 18.3012 49.3471C18.4549 48.5379 18.6378 47.7068 18.8486 46.8572C21.9209 47.5366 25.3213 48.0254 28.9557 48.3201C31.0309 51.2401 33.204 53.9241 35.3939 56.2742C34.9155 56.7361 34.4389 57.1759 33.9649 57.5902C31.0551 60.1338 28.139 61.9384 25.5692 62.8461ZM14.7506 42.4063C11.0935 41.1564 8.07335 39.5318 6.00318 37.7591C4.14301 36.1661 3.20384 34.5845 3.20384 33.3012C3.20384 30.5702 7.27543 27.0868 14.0661 24.7192C14.8901 24.4319 15.7526 24.1612 16.6477 23.9068C17.5862 26.9597 18.8174 30.1515 20.3031 33.3791C18.7981 36.6547 17.5495 39.8974 16.6018 42.986C15.9637 42.8026 15.3454 42.6095 14.7506 42.4063ZM18.3771 17.721C16.9676 10.5177 17.9037 5.08376 20.2593 3.7202C22.7684 2.26759 28.3167 4.3387 34.1645 9.53114C34.5383 9.86302 34.9136 10.2104 35.2899 10.5698C33.1108 12.9096 30.9576 15.5734 28.9008 18.4762C25.3735 18.8032 21.997 19.3284 18.8926 20.0316C18.6975 19.2465 18.5246 18.4752 18.3771 17.721ZM50.7287 25.7095C49.9866 24.4276 49.2247 23.1761 48.448 21.9587C50.841 22.2612 53.1337 22.6628 55.2867 23.1542C54.6403 25.2258 53.8347 27.3918 52.8863 29.6123C52.206 28.3207 51.4864 27.0184 50.7287 25.7095ZM37.5358 12.8595C39.0136 14.4606 40.4936 16.2481 41.9493 18.1876C40.4824 18.1183 38.9973 18.0823 37.5 18.0823C36.0168 18.0823 34.5427 18.1175 33.0849 18.1856C34.5421 16.2642 36.0348 14.479 37.5358 12.8595ZM24.2584 25.7316C23.517 27.0171 22.8108 28.3123 22.1412 29.6099C21.2082 27.3972 20.41 25.2213 19.758 23.1203C21.8978 22.6414 24.1797 22.2499 26.5575 21.9531C25.7698 23.1817 25.0017 24.4427 24.2584 25.7316ZM26.626 44.8778C24.1693 44.6037 21.8531 44.2323 19.7138 43.7667C20.3762 41.6282 21.192 39.4058 22.1448 37.1454C22.8162 38.4421 23.5252 39.7378 24.271 41.0261C25.0308 42.3385 25.818 43.6241 26.626 44.8778ZM37.6244 53.9687C36.1059 52.3302 34.5912 50.5179 33.1119 48.5684C34.5479 48.6247 36.012 48.6536 37.5 48.6536C39.0287 48.6536 40.5399 48.6191 42.0274 48.5529C40.5669 50.5375 39.0922 52.3527 37.6244 53.9687ZM52.9169 37.0302C53.9193 39.315 54.7644 41.5258 55.4353 43.6278C53.2608 44.1239 50.9129 44.5235 48.4392 44.8204C49.2177 43.5866 49.9863 42.3136 50.7415 41.0041C51.5055 39.6792 52.2309 38.3524 52.9169 37.0302ZM47.9662 39.4034C46.7938 41.4362 45.5902 43.3767 44.3683 45.2085C42.1427 45.3676 39.8434 45.4496 37.5 45.4496C35.166 45.4496 32.8958 45.3771 30.7096 45.2352C29.4384 43.3794 28.2086 41.4331 27.0437 39.4209C25.8818 37.4141 24.8128 35.3904 23.8439 33.3781C24.8125 31.361 25.879 29.3351 27.0342 27.3319L27.0339 27.3323C28.1922 25.3238 29.4112 23.387 30.6706 21.5428C32.9011 21.3742 35.1883 21.2863 37.4999 21.2863C39.8218 21.2863 42.1121 21.3749 44.342 21.545C45.5822 23.3757 46.7929 25.3062 47.9556 27.3149C49.1316 29.3463 50.2119 31.3588 51.1889 33.3325C50.2148 35.3402 49.137 37.373 47.9662 39.4034ZM54.5756 3.62488C57.0871 5.07321 58.0638 10.9143 56.4858 18.5738C56.3852 19.0626 56.2718 19.5604 56.1487 20.0649C53.0371 19.3469 49.6583 18.8127 46.1207 18.4808C44.0599 15.5461 41.9243 12.8781 39.7807 10.5683C40.357 10.0139 40.9325 9.48522 41.5056 8.98633C47.0426 4.16769 52.2177 2.26519 54.5756 3.62488ZM37.5 26.6039C41.1987 26.6039 44.1972 29.6023 44.1972 33.3012C44.1972 36.9999 41.1987 39.9984 37.5 39.9984C33.8013 39.9984 30.8028 36.9999 30.8028 33.3012C30.8028 29.6023 33.8013 26.6039 37.5 26.6039Z" fill="#00D8FF"/>
</svg>
