<svg width="300" height="200" viewBox="0 0 300 200" fill="none" xmlns="http://www.w3.org/2000/svg">
<g clip-path="url(#clip0_224_132)">
<rect width="300" height="200" fill="white"/>
<rect width="300" height="200" fill="#1F1F1F"/>
<g clip-path="url(#clip1_224_132)">
<path d="M148.75 71.5625V45H109.688C107.09 45 105 47.0898 105 49.6875V140.312C105 142.91 107.09 145 109.688 145H175.312C177.91 145 180 142.91 180 140.312V76.25H153.438C150.859 76.25 148.75 74.1406 148.75 71.5625ZM161.25 117.656C161.25 118.945 160.195 120 158.906 120H126.094C124.805 120 123.75 118.945 123.75 117.656V116.094C123.75 114.805 124.805 113.75 126.094 113.75H158.906C160.195 113.75 161.25 114.805 161.25 116.094V117.656ZM161.25 105.156C161.25 106.445 160.195 107.5 158.906 107.5H126.094C124.805 107.5 123.75 106.445 123.75 105.156V103.594C123.75 102.305 124.805 101.25 126.094 101.25H158.906C160.195 101.25 161.25 102.305 161.25 103.594V105.156ZM161.25 91.0938V92.6562C161.25 93.9453 160.195 95 158.906 95H126.094C124.805 95 123.75 93.9453 123.75 92.6562V91.0938C123.75 89.8047 124.805 88.75 126.094 88.75H158.906C160.195 88.75 161.25 89.8047 161.25 91.0938ZM180 68.8086V70H155V45H156.191C157.441 45 158.633 45.4883 159.512 46.3672L178.633 65.5078C179.512 66.3867 180 67.5781 180 68.8086Z" fill="#333232"/>
</g>
<rect x="101.085" y="44.708" width="130.896" height="6" rx="1" transform="rotate(47.5644 101.085 44.708)" fill="#333232"/>
<rect x="105.428" y="41" width="130.896" height="6" transform="rotate(47.5644 105.428 41)" fill="#1F1F1F"/>
</g>
<defs>
<clipPath id="clip0_224_132">
<rect width="300" height="200" fill="white"/>
</clipPath>
<clipPath id="clip1_224_132">
<rect width="75" height="100" fill="white" transform="translate(105 45)"/>
</clipPath>
</defs>
</svg>
