<svg width="75" height="86" viewBox="0 0 75 86" fill="none" xmlns="http://www.w3.org/2000/svg">
<path d="M6.82315 76.5584L0 0H75L68.1677 76.5463L37.4544 85.0616L6.82315 76.5584Z" fill="#1572B6"/>
<path d="M37.5 78.5545L62.3197 71.6736L68.1586 6.26123H37.5V78.5545Z" fill="#33A9DC"/>
<path d="M37.5 33.9975H49.9251L50.7818 24.3825H37.5V14.9923H37.5334H61.0438L60.819 17.5107L58.5132 43.3877H37.5V33.9975Z" fill="white"/>
<path d="M37.5576 58.3824L37.5151 58.3945L27.0586 55.5693L26.3903 48.0808H21.3078H16.9636L18.279 62.8238L37.5121 68.1645L37.5576 68.1523V58.3824Z" fill="#EBEBEB"/>
<path d="M49.1263 42.9893L47.9962 55.5632L37.5245 58.3884V68.1584L56.7728 62.8238L56.9155 61.238L58.5469 42.9893H49.1263Z" fill="white"/>
<path d="M37.5333 14.9923V20.8251V24.3582V24.3825H14.8826H14.8522L14.6639 22.2712L14.2355 17.5107L14.0107 14.9923H37.5333Z" fill="#EBEBEB"/>
<path d="M37.4998 33.9978V39.8306V43.3637V43.388H27.2043H27.1739L26.9856 41.2766L26.5603 36.5162L26.3354 33.9978H37.4998Z" fill="#EBEBEB"/>
</svg>
