<svg width="75" height="75" viewBox="0 0 75 75" fill="none" xmlns="http://www.w3.org/2000/svg">
<g clip-path="url(#clip0_210_2)">
<path d="M73.5791 27.9492C74.1504 27.4951 75 27.9199 75 28.6377V58.5938C75 62.4756 71.8506 65.625 67.9688 65.625H7.03125C3.14941 65.625 0 62.4756 0 58.5938V28.6523C0 27.9199 0.834961 27.5098 1.4209 27.9639C4.70215 30.5127 9.05273 33.75 23.9941 44.6045C27.085 46.8604 32.2998 51.6064 37.5 51.5771C42.7295 51.6211 48.0469 46.7725 51.0205 44.6045C65.9619 33.75 70.2978 30.498 73.5791 27.9492ZM37.5 46.875C40.8984 46.9336 45.791 42.5977 48.252 40.8105C67.6904 26.7041 69.1699 25.4736 73.6523 21.958C74.502 21.2988 75 20.2734 75 19.1895V16.4062C75 12.5244 71.8506 9.375 67.9688 9.375H7.03125C3.14941 9.375 0 12.5244 0 16.4062V19.1895C0 20.2734 0.498047 21.2842 1.34766 21.958C5.83008 25.459 7.30957 26.7041 26.748 40.8105C29.209 42.5977 34.1016 46.9336 37.5 46.875Z" fill="white"/>
</g>
<defs>
<clipPath id="clip0_210_2">
<rect width="75" height="75" fill="white"/>
</clipPath>
</defs>
</svg>
