<svg width="80" height="76" viewBox="0 0 80 76" fill="none" xmlns="http://www.w3.org/2000/svg">
<path d="M40 0.00203555C29.5035 -0.104024 19.3941 3.93823 11.8936 11.2404C4.39304 18.5426 0.115128 28.5072 0 38.9443C0.040445 47.1925 2.70888 55.2158 7.62205 61.8618C12.5352 68.5077 19.4403 73.4343 27.3455 75.934C29.3455 76.2955 30.0727 75.1023 30.0727 74.0537C30.0727 73.0052 30.0727 70.691 30.0727 67.4368C18.9455 69.7871 16.5818 62.2301 16.5818 62.2301C15.8411 59.8577 14.2663 57.8298 12.1455 56.5171C8.50909 54.1306 12.4364 54.1668 12.4364 54.1668C13.6933 54.3339 14.8958 54.7818 15.9539 55.4769C17.0119 56.172 17.8979 57.0962 18.5455 58.1804C19.6739 60.1261 21.5256 61.5535 23.7019 62.1554C25.8781 62.7572 28.2051 62.4854 30.1818 61.3984C30.3851 59.4183 31.2869 57.5738 32.7273 56.1917C23.8545 55.2154 14.5455 51.8889 14.5455 36.9556C14.4661 33.0602 15.9136 29.2868 18.5818 26.4336C17.3666 23.0892 17.5101 19.4056 18.9818 16.1647C18.9818 16.1647 22.3636 15.1161 29.8909 20.1421C36.4433 18.4059 43.3386 18.4059 49.8909 20.1421C57.5273 15.1161 60.8 16.1647 60.8 16.1647C62.2717 19.4056 62.4152 23.0892 61.2 26.4336C63.9302 29.2346 65.4562 32.9826 65.4545 36.8833C65.4545 51.8527 56.0727 55.1431 47.2727 56.1193C48.2363 57.0496 48.9806 58.1805 49.4522 59.4309C49.9238 60.6813 50.1108 62.0201 50 63.351V74.0176C50 74.0176 50.7273 76.2955 52.7273 75.8978C60.61 73.3827 67.4919 68.4549 72.3898 61.8184C77.2878 55.1818 79.9513 47.176 80 38.9443C79.8849 28.5072 75.607 18.5426 68.1064 11.2404C60.6059 3.93823 50.4965 -0.104024 40 0.00203555Z" fill="white"/>
</svg>
