<svg width="75" height="75" viewBox="0 0 75 75" fill="none" xmlns="http://www.w3.org/2000/svg">
<path d="M0 0H75V75H0V0Z" fill="#F7DF1E"/>
<path d="M19.7202 62.6753L25.4597 59.2019C26.567 61.1651 27.5743 62.8262 29.9903 62.8262C32.3063 62.8262 33.7664 61.9202 33.7664 58.3964V34.4321H40.8145V58.4961C40.8145 65.7961 36.5355 69.1188 30.2925 69.1188C24.6543 69.1188 21.3814 66.1987 19.7201 62.6748" fill="black"/>
<path d="M44.6428 61.9203L50.3816 58.5975C51.8923 61.0647 53.8558 62.8769 57.3294 62.8769C60.2497 62.8769 62.112 61.4168 62.112 59.403C62.112 56.9864 60.199 56.1305 56.9769 54.7213L55.2153 53.9656C50.1302 51.8012 46.757 49.0826 46.757 43.3432C46.757 38.057 50.7845 34.0293 57.0778 34.0293C61.5585 34.0293 64.7806 35.5901 67.0962 39.6681L61.6085 43.192C60.4002 41.0274 59.0916 40.1717 57.0779 40.1717C55.0138 40.1717 53.7047 41.4806 53.7047 43.192C53.7047 45.3066 55.0138 46.1626 58.0341 47.4717L59.796 48.2268C65.7871 50.7945 69.1603 53.4122 69.1603 59.3023C69.1603 65.6461 64.1763 69.1195 57.4806 69.1195C50.9358 69.1195 46.7066 65.9983 44.6428 61.9203Z" fill="black"/>
</svg>
