<svg width="75" height="45" viewBox="0 0 75 45" fill="none" xmlns="http://www.w3.org/2000/svg">
<path d="M37.5 0C27.5 0 21.25 5 18.75 15C22.5 10 26.875 8.125 31.875 9.375C34.7278 10.0882 36.7668 12.1578 39.0238 14.4488C42.7004 18.1807 46.9557 22.5 56.25 22.5C66.25 22.5 72.5 17.5 75 7.5C71.25 12.5 66.875 14.375 61.875 13.125C59.0222 12.4118 56.9832 10.3422 54.7262 8.05125C51.0496 4.31931 46.7943 0 37.5 0ZM18.75 22.5C8.75 22.5 2.5 27.5 0 37.5C3.75 32.5 8.125 30.625 13.125 31.875C15.9778 32.5882 18.0168 34.6578 20.2738 36.9488C23.9504 40.6807 28.2057 45 37.5 45C47.5 45 53.75 40 56.25 30C52.5 35 48.125 36.875 43.125 35.625C40.2722 34.9118 38.2332 32.8422 35.9762 30.5513C32.2996 26.8193 28.0443 22.5 18.75 22.5Z" fill="url(#paint0_linear_28_114)"/>
<defs>
<linearGradient id="paint0_linear_28_114" x1="-533.333" y1="2217.6" x2="17843.8" y2="8591.65" gradientUnits="userSpaceOnUse">
<stop stop-color="#2298BD"/>
<stop offset="1" stop-color="#0ED7B5"/>
</linearGradient>
</defs>
</svg>
