<svg width="75" height="75" viewBox="0 0 75 75" fill="none" xmlns="http://www.w3.org/2000/svg">
<path d="M63.2812 0C69.7533 0 75 5.24667 75 11.7187V63.2812C75 69.7533 69.7533 75 63.2812 75H11.7187C5.24667 75 0 69.7533 0 63.2812V11.7187C0 5.24667 5.24667 0 11.7187 0H63.2812Z" fill="#030303"/>
<path d="M37.5684 37.6188C37.5684 33.18 41.1668 29.5813 45.6056 29.5813C50.0446 29.5813 53.6431 33.18 53.6431 37.6188C53.6431 42.0579 50.0446 45.6563 45.6056 45.6563C41.1668 45.6563 37.5684 42.0579 37.5684 37.6188Z" fill="#1ABCFE"/>
<path d="M21.4932 53.6937C21.4932 49.2549 25.0916 45.6565 29.5307 45.6565H37.5682V53.6937C37.5682 58.1327 33.9697 61.7312 29.5307 61.7312C25.0916 61.7312 21.4932 58.1327 21.4932 53.6937Z" fill="#0ACF83"/>
<path d="M37.5684 13.5066V29.5813H45.6056C50.0446 29.5813 53.6431 25.9828 53.6431 21.5441C53.6431 17.1051 50.0446 13.5066 45.6056 13.5066H37.5684Z" fill="#FF7262"/>
<path d="M21.4932 21.5441C21.4932 25.9828 25.0916 29.5813 29.5307 29.5813H37.5682V13.5066H29.5307C25.0916 13.5066 21.4932 17.1051 21.4932 21.5441Z" fill="#F24E1E"/>
<path d="M21.4932 37.6188C21.4932 42.0579 25.0916 45.6563 29.5307 45.6563H37.5682V29.5813H29.5307C25.0916 29.5813 21.4932 33.18 21.4932 37.6188Z" fill="#A259FF"/>
</svg>
