<svg width="32" height="32" viewBox="0 0 32 32" fill="none" xmlns="http://www.w3.org/2000/svg">
<path d="M5.90179 27.201L3.65479 2H28.3448L26.0948 27.197L15.9848 30L5.90179 27.201Z" fill="#E44F26"/>
<path d="M15.9849 30L15.9849 2H28.3449L26.0949 27.197L15.9849 30Z" fill="#1572B6"/>
<path d="M16 27.8575L24.17 25.5925L26.092 4.06055H16V27.8575Z" fill="#33A9DC"/>
<path d="M16 13.4074H11.91L11.628 10.2424H16V7.15137H15.989H8.25L8.324 7.98137L9.083 16.4984H16V13.4074Z" fill="#EBEBEB"/>
<path d="M16.0002 21.4339L15.9862 21.4379L12.5442 20.5089L12.3242 18.0439H10.6512H9.22119L9.65419 22.8959L15.9862 24.6539L16.0002 24.6499V21.4339Z" fill="#EBEBEB"/>
<path d="M15.9888 13.4072V16.4982H19.7948L19.4368 20.5072L15.9888 21.4372V24.6532L22.3258 22.8962L22.3718 22.3742L23.0978 14.2372L23.1738 13.4072H22.3408H15.9888Z" fill="white"/>
<path d="M15.9888 7.15137V9.07137V10.2354V10.2424H23.4448H23.4548L23.5168 9.54837L23.6578 7.98137L23.7318 7.15137H15.9888Z" fill="white"/>
</svg>
