<svg width="740" height="845" viewBox="0 0 740 845" fill="none" xmlns="http://www.w3.org/2000/svg">
<path d="M696.507 423.232L696.528 423.269L696.551 423.306C735.89 485.086 745.25 542.123 734.167 592.924C723.076 643.763 691.469 688.553 648.514 725.708C562.568 800.05 431.566 843.5 330.458 843.5C229.511 843.5 147.325 798.329 90.3362 724.092C33.3237 649.826 1.5 546.418 1.5 430.006C1.5 313.592 33.3254 206.416 90.3573 128.386C147.369 50.3831 229.557 1.5 330.458 1.5C381.084 1.5 417.686 7.39082 447.019 21.2283C476.319 35.0503 498.517 56.8739 520.199 89.038C541.907 121.24 563.028 163.696 590.229 218.717L592.108 222.519C618.945 276.808 651.687 343.043 696.507 423.232Z" stroke="black" stroke-width="3"/>
</svg>
