<svg width="485" height="243" viewBox="0 0 485 243" fill="none" xmlns="http://www.w3.org/2000/svg">
<path d="M477.012 13.0454C489.082 27.4299 487.205 48.8756 472.821 60.9457L266.755 233.856C252.37 245.926 230.925 244.049 218.855 229.665C206.784 215.28 208.661 193.835 223.045 181.765L429.111 8.85466C443.496 -3.2154 464.941 -1.33914 477.012 13.0454Z" fill="white"/>
<path d="M266.578 230.309C254.508 244.694 233.062 246.57 218.678 234.5L12.612 61.5899C-1.77254 49.5199 -3.6488 28.0742 8.42126 13.6897C20.4913 -0.694886 41.937 -2.57114 56.3216 9.49892L262.388 182.409C276.772 194.479 278.648 215.925 266.578 230.309Z" fill="white"/>
</svg>
