<svg width="75" height="86" viewBox="0 0 75 86" fill="none" xmlns="http://www.w3.org/2000/svg">
<path d="M6.82564 76.5522L0 0H75L68.1653 76.5401L37.4544 85.0547L6.82564 76.5522Z" fill="#E44F26"/>
<path d="M37.4998 78.5481L62.3175 71.6678L68.1559 6.26074H37.4998V78.5481Z" fill="#F1662A"/>
<path d="M37.4999 34.6504H25.0759L24.2192 25.0362H37.4999V15.6467H37.4665H13.958L14.1828 18.168L16.4884 44.0398H37.4999V34.6504Z" fill="#EBEBEB"/>
<path d="M37.5001 59.0338L37.4575 59.0459L27.0019 56.2239L26.3336 48.7361H21.2516H16.9077L18.223 63.4748L37.4575 68.8151L37.5001 68.8029V59.0338Z" fill="#EBEBEB"/>
<path d="M37.4666 34.6504V44.0398H49.0279L47.9404 56.2178L37.4666 59.0429V68.812L56.7162 63.4748L56.856 61.8892L59.0613 37.1717L59.2922 34.6504H56.7618H37.4666Z" fill="white"/>
<path d="M37.4666 15.6467V21.479V25.0149V25.0362H60.1154H60.1458L60.3341 22.928L60.7624 18.168L60.9872 15.6467H37.4666Z" fill="white"/>
</svg>
