<svg width="243" height="485" viewBox="0 0 243 485" fill="none" xmlns="http://www.w3.org/2000/svg">
<path d="M230.348 476.972C215.964 489.043 194.518 487.166 182.448 472.782L9.53802 266.716C-2.53204 252.331 -0.655789 230.886 13.7287 218.815C28.1133 206.745 49.559 208.622 61.629 223.006L234.539 429.072C246.609 443.457 244.733 464.902 230.348 476.972Z" fill="white"/>
<path d="M13.0845 266.539C-1.30005 254.469 -3.1763 233.023 8.89376 218.639L181.804 12.5729C193.874 -1.81161 215.319 -3.68787 229.704 8.3822C244.088 20.4523 245.965 41.8979 233.895 56.2825L60.9848 262.348C48.9147 276.733 27.469 278.609 13.0845 266.539Z" fill="white"/>
</svg>
