<svg width="66" height="66" viewBox="0 0 66 66" fill="none" xmlns="http://www.w3.org/2000/svg">
<path d="M48.5075 0C47.0188 0.0829707 45.5301 0.248912 44.1241 0.746736C41.891 1.57644 39.7406 2.821 37.9211 4.64636C37.3975 4.9793 36.9553 5.42604 36.6271 5.95356C36.2989 6.48107 36.0931 7.07586 36.0249 7.69393C35.9567 8.312 36.0279 8.93753 36.2332 9.52427C36.4385 10.111 36.7727 10.6439 37.211 11.0837C37.6493 11.5234 38.1806 11.8586 38.7654 12.0646C39.3503 12.2705 39.9739 12.342 40.59 12.2736C41.2061 12.2052 41.799 11.9987 42.3248 11.6694C42.8506 11.3402 43.2959 10.8965 43.6278 10.3713C44.5376 9.45866 45.6128 8.96084 46.7707 8.54598C49.6654 7.55033 53.2218 7.96519 55.5376 10.3713C58.7632 13.6072 58.7632 19.0003 55.5376 22.3191L43.1316 34.7647C39.4925 38.4154 36.515 38.7473 34.3647 38.6644C32.2143 38.5814 30.9737 37.5857 30.9737 37.5857C30.4958 37.3133 29.9691 37.138 29.4237 37.0698C28.8782 37.0016 28.3248 37.0419 27.7948 37.1883C27.2649 37.3347 26.7689 37.5843 26.3352 37.923C25.9014 38.2617 25.5384 38.6828 25.2669 39.1622C24.9954 39.6416 24.8206 40.17 24.7527 40.7171C24.6847 41.2643 24.7248 41.8195 24.8707 42.3512C25.0166 42.8828 25.2655 43.3803 25.6031 43.8155C25.9407 44.2506 26.3605 44.6148 26.8383 44.8872C26.8383 44.8872 29.6504 46.7125 33.7857 46.9614C37.9211 47.2103 43.7105 45.6339 48.7556 40.4897L61.1617 28.0441C67.6128 21.5724 67.6128 11.1181 61.1617 4.72933C58.8459 2.40615 56.1166 0.995649 53.1391 0.331883C51.6504 0 49.9962 0 48.5075 0.0829707V0ZM31.9662 19.1662C27.8308 19.0003 22.1241 20.4108 17.2444 25.389L4.83835 37.8346C-1.61278 44.3064 -1.61278 54.7607 4.83835 61.1494C9.46993 65.7958 16.0865 67.1233 21.8759 65.049C24.109 64.2193 26.2594 62.9748 28.0789 61.1494C28.6025 60.8165 29.0447 60.3697 29.3729 59.8422C29.7011 59.3147 29.9069 58.7199 29.9751 58.1018C30.0433 57.4838 29.9721 56.8582 29.7668 56.2715C29.5615 55.6848 29.2273 55.1518 28.789 54.7121C28.3507 54.2724 27.8195 53.9372 27.2346 53.7312C26.6497 53.5252 26.0262 53.4538 25.4101 53.5222C24.794 53.5906 24.2011 53.7971 23.6752 54.1263C23.1494 54.4556 22.7041 54.8992 22.3722 55.4244C21.4624 56.3371 20.3872 56.8349 19.2293 57.2498C16.3346 58.2454 12.7782 57.8306 10.4624 55.4244C7.23684 52.1886 7.23684 46.7955 10.4624 43.4767L22.8684 31.031C26.1767 27.7122 29.0714 27.2974 31.3872 27.3803C33.703 27.4633 35.2744 28.1271 35.2744 28.1271C35.759 28.4917 36.3175 28.745 36.9104 28.8692C37.5034 28.9934 38.1162 28.9854 38.7058 28.8458C39.2953 28.7062 39.847 28.4384 40.322 28.0613C40.7969 27.6842 41.1835 27.207 41.4544 26.6635C41.7253 26.12 41.8738 25.5235 41.8896 24.916C41.9053 24.3086 41.7879 23.7051 41.5455 23.1482C41.3031 22.5913 40.9417 22.0947 40.4869 21.6933C40.0322 21.292 39.495 20.9958 38.9135 20.8257C38.9135 20.8257 36.1015 19.1662 31.9662 19.0003V19.1662Z" fill="white"/>
</svg>
