<svg width="75" height="75" viewBox="0 0 75 75" fill="none" xmlns="http://www.w3.org/2000/svg">
<path d="M68.7517 0H5.27206C2.36334 0 0 2.39639 0 5.33817V68.7021C0 71.6439 2.36334 74.0403 5.27206 74.0403H68.7517C71.6604 74.0403 74.0403 71.6439 74.0403 68.7021V5.33817C74.0403 2.39639 71.6604 0 68.7517 0ZM22.3773 63.4631H11.4035V28.1287H22.3939V63.4631H22.3773ZM16.8904 23.3029C13.3702 23.3029 10.5276 20.4437 10.5276 16.94C10.5276 13.4363 13.3702 10.5772 16.8904 10.5772C20.3941 10.5772 23.2533 13.4363 23.2533 16.94C23.2533 20.4602 20.4107 23.3029 16.8904 23.3029ZM63.5127 63.4631H52.5388V46.2752C52.5388 42.1765 52.4562 36.9044 46.8371 36.9044C41.1188 36.9044 40.2429 41.3667 40.2429 45.9777V63.4631H29.269V28.1287H39.7966V32.9545H39.9454C41.4163 30.178 45.0026 27.2528 50.3408 27.2528C61.4468 27.2528 63.5127 34.5742 63.5127 44.0936V63.4631Z" fill="black"/>
</svg>
