<svg width="243" height="485" viewBox="0 0 243 485" fill="none" xmlns="http://www.w3.org/2000/svg">
<path d="M13.0845 8.38204C27.469 -3.68802 48.9147 -1.81177 60.9847 12.5728L233.895 218.639C245.965 233.023 244.088 254.469 229.704 266.539C215.319 278.609 193.874 276.733 181.804 262.348L8.89372 56.2823C-3.17633 41.8978 -1.30008 20.4521 13.0845 8.38204Z" fill="black"/>
<path d="M230.348 218.815C244.733 230.885 246.609 252.331 234.539 266.716L61.629 472.782C49.5589 487.166 28.1133 489.042 13.7287 476.972C-0.655823 464.902 -2.53207 443.457 9.53798 429.072L182.448 223.006C194.518 208.622 215.964 206.745 230.348 218.815Z" fill="black"/>
</svg>
