<svg width="485" height="243" viewBox="0 0 485 243" fill="none" xmlns="http://www.w3.org/2000/svg">
<path d="M8.42134 230.309C-3.64872 215.925 -1.77246 194.479 12.6121 182.409L218.678 9.49896C233.063 -2.5711 254.508 -0.694852 266.578 13.6897C278.648 28.0742 276.772 49.5199 262.388 61.59L56.3216 234.5C41.9371 246.57 20.4914 244.694 8.42134 230.309Z" fill="black"/>
<path d="M218.855 13.0454C230.925 -1.33911 252.37 -3.21537 266.755 8.85469L472.821 181.765C487.205 193.835 489.082 215.28 477.012 229.665C464.942 244.049 443.496 245.926 429.111 233.856L223.045 60.9457C208.661 48.8757 206.785 27.43 218.855 13.0454Z" fill="black"/>
</svg>
