<svg width="256" height="256" viewBox="0 0 256 256" fill="none" xmlns="http://www.w3.org/2000/svg">
<g clip-path="url(#clip0_71_25)">
<path d="M196 0H60C26.8629 0 0 26.8629 0 60V196C0 229.137 26.8629 256 60 256H196C229.137 256 256 229.137 256 196V60C256 26.8629 229.137 0 196 0Z" fill="#E14E1D"/>
<path d="M48 38L56.6098 134.593H167.32L163.605 176.023L127.959 185.661L92.38 176.037L90.0012 149.435H57.9389L62.5236 200.716L127.951 218.888L193.461 200.716L202.244 102.655H85.8241L82.901 69.9448L48 38Z" fill="white"/>
<path d="M128 38H48L56.6098 134.593H128V102.655H85.8241L82.901 69.9448H128V38Z" fill="#EBEBEB"/>
<path d="M128 185.647L127.959 185.661L92.3802 176.037L90.0014 149.435H57.939L62.5238 200.716L127.951 218.888L128 218.874V185.647Z" fill="#EBEBEB"/>
<path d="M167.318 134.593L163.61 176.019L127.985 185.635V218.866L193.468 200.718L193.948 195.321L201.454 111.229L202.233 102.651L208 38H127.985V69.9423H172.994L170.088 102.651H127.985V134.593H167.318Z" fill="white"/>
</g>
<g clip-path="url(#clip1_71_25)">
<mask id="mask0_71_25" style="mask-type:alpha" maskUnits="userSpaceOnUse" x="0" y="0" width="256" height="256">
<path d="M0 0H256L0 256V0Z" fill="#D9D9D9"/>
</mask>
<g mask="url(#mask0_71_25)">
<path d="M196 0H60C26.8629 0 0 26.8629 0 60V196C0 229.137 26.8629 256 60 256H196C229.137 256 256 229.137 256 196V60C256 26.8629 229.137 0 196 0Z" fill="#0277BD"/>
<path d="M53.7529 102.651L56.6157 134.593H128.096V102.651H53.7529Z" fill="#EBEBEB"/>
<path d="M128.095 38H127.985H48L50.9036 69.9423H128.095V38Z" fill="#EBEBEB"/>
<path d="M128.095 218.841V185.608L127.955 185.645L92.3813 176.04L90.1072 150.564H72.821H58.0425L62.5175 200.718L127.948 218.882L128.095 218.841Z" fill="#EBEBEB"/>
<path d="M167.318 134.593L163.61 176.019L127.985 185.635V218.866L193.468 200.718L193.948 195.321L201.454 111.229L202.233 102.651L208 38H127.985V69.9423H172.994L170.088 102.651H127.985V134.593H167.318Z" fill="white"/>
</g>
</g>
<defs>
<clipPath id="clip0_71_25">
<rect width="256" height="256" fill="white"/>
</clipPath>
<clipPath id="clip1_71_25">
<rect width="256" height="256" fill="white"/>
</clipPath>
</defs>
</svg>
